; NON-PLATED HOLES START AT T1
; THROUGH (PLATED) HOLES START AT T100
M48
INCH
T100C0.036000
T101C0.039370
T102C0.030000
%
T100
X011126Y006945
X011126Y014945
X005126Y006945
X005126Y014945
X011126Y005945
X011126Y016945
X011126Y013945
X005126Y005945
X005126Y016945
X005126Y013945
X011126Y008945
X011126Y015945
X005126Y008945
X005126Y015945
X011126Y007945
X011126Y018945
X005126Y007945
X011126Y010945
X005126Y018945
X011126Y017945
X005126Y010945
X005126Y017945
X011126Y009945
X005126Y009945
X011126Y012945
X005126Y012945
X011126Y004945
X011126Y011945
X005126Y004945
X005126Y011945
T101
X002126Y021945
X016126Y023945
X009126Y001945
X015126Y020945
X014126Y018945
X016126Y018945
X008126Y001945
X015126Y012945
X014126Y010945
X016126Y010945
X002126Y023945
X003126Y023945
X016126Y008945
X007126Y001945
X015126Y014945
X014126Y012945
X015126Y021945
X016126Y012945
X006126Y001945
X015126Y016945
X014126Y008945
X002126Y020945
X015126Y008945
X014126Y014945
X015126Y023945
X016126Y014945
X015126Y018945
X014126Y016945
X016126Y016945
X015126Y010945
T102
X007626Y022445
X008626Y022445
X005626Y022445
X006626Y022445
X010626Y022445
X009626Y022445
T00
M30
