G04 MADE WITH FRITZING*
G04 WWW.FRITZING.ORG*
G04 DOUBLE SIDED*
G04 HOLES PLATED*
G04 CONTOUR ON CENTER OF CONTOUR VECTOR*
%ASAXBY*%
%FSLAX23Y23*%
%MOIN*%
%OFA0B0*%
%SFA1.0B1.0*%
%ADD10C,0.089370*%
%ADD11C,0.080000*%
%ADD12R,0.079972X0.080000*%
%ADD13R,0.001000X0.001000*%
%LNMASK1*%
G90*
G70*
G54D10*
X613Y195D03*
X713Y195D03*
X813Y195D03*
X913Y195D03*
G54D11*
X1113Y495D03*
X1113Y595D03*
X1113Y695D03*
X1113Y795D03*
X1113Y895D03*
X1113Y995D03*
X1113Y1095D03*
X1113Y1195D03*
X1113Y1295D03*
X1113Y1395D03*
X1113Y1495D03*
X1113Y1595D03*
X1113Y1695D03*
X1113Y1795D03*
X1113Y1895D03*
X513Y495D03*
X513Y595D03*
X513Y695D03*
X513Y795D03*
X513Y895D03*
X513Y995D03*
X513Y1095D03*
X513Y1195D03*
X513Y1295D03*
X513Y1395D03*
X513Y1495D03*
X513Y1595D03*
X513Y1695D03*
X513Y1795D03*
X513Y1895D03*
G54D10*
X1513Y2395D03*
X1613Y2395D03*
X1513Y2095D03*
X1513Y2195D03*
X213Y2095D03*
X213Y2195D03*
X1413Y895D03*
X1513Y895D03*
X1613Y895D03*
X1413Y1095D03*
X1513Y1095D03*
X1613Y1095D03*
X1413Y1295D03*
X1513Y1295D03*
X1613Y1295D03*
X1413Y1495D03*
X1513Y1495D03*
X1613Y1495D03*
X1413Y1695D03*
X1513Y1695D03*
X1613Y1695D03*
X1413Y1895D03*
X1513Y1895D03*
X1613Y1895D03*
X213Y2395D03*
X313Y2395D03*
G54D12*
X1113Y495D03*
G54D13*
X555Y2284D02*
X569Y2284D01*
X655Y2284D02*
X669Y2284D01*
X755Y2284D02*
X769Y2284D01*
X855Y2284D02*
X869Y2284D01*
X955Y2284D02*
X969Y2284D01*
X1055Y2284D02*
X1069Y2284D01*
X551Y2283D02*
X573Y2283D01*
X651Y2283D02*
X673Y2283D01*
X751Y2283D02*
X773Y2283D01*
X851Y2283D02*
X873Y2283D01*
X951Y2283D02*
X973Y2283D01*
X1051Y2283D02*
X1073Y2283D01*
X549Y2282D02*
X575Y2282D01*
X649Y2282D02*
X675Y2282D01*
X749Y2282D02*
X775Y2282D01*
X849Y2282D02*
X875Y2282D01*
X949Y2282D02*
X975Y2282D01*
X1049Y2282D02*
X1075Y2282D01*
X547Y2281D02*
X577Y2281D01*
X647Y2281D02*
X677Y2281D01*
X747Y2281D02*
X777Y2281D01*
X847Y2281D02*
X877Y2281D01*
X947Y2281D02*
X977Y2281D01*
X1047Y2281D02*
X1077Y2281D01*
X545Y2280D02*
X579Y2280D01*
X645Y2280D02*
X679Y2280D01*
X745Y2280D02*
X779Y2280D01*
X845Y2280D02*
X879Y2280D01*
X945Y2280D02*
X979Y2280D01*
X1045Y2280D02*
X1079Y2280D01*
X543Y2279D02*
X581Y2279D01*
X643Y2279D02*
X681Y2279D01*
X743Y2279D02*
X781Y2279D01*
X843Y2279D02*
X881Y2279D01*
X943Y2279D02*
X981Y2279D01*
X1043Y2279D02*
X1081Y2279D01*
X542Y2278D02*
X582Y2278D01*
X642Y2278D02*
X682Y2278D01*
X742Y2278D02*
X782Y2278D01*
X842Y2278D02*
X882Y2278D01*
X942Y2278D02*
X982Y2278D01*
X1042Y2278D02*
X1082Y2278D01*
X540Y2277D02*
X584Y2277D01*
X640Y2277D02*
X684Y2277D01*
X740Y2277D02*
X784Y2277D01*
X840Y2277D02*
X884Y2277D01*
X940Y2277D02*
X984Y2277D01*
X1040Y2277D02*
X1084Y2277D01*
X539Y2276D02*
X585Y2276D01*
X639Y2276D02*
X685Y2276D01*
X739Y2276D02*
X785Y2276D01*
X839Y2276D02*
X885Y2276D01*
X939Y2276D02*
X985Y2276D01*
X1039Y2276D02*
X1085Y2276D01*
X538Y2275D02*
X586Y2275D01*
X638Y2275D02*
X686Y2275D01*
X738Y2275D02*
X786Y2275D01*
X838Y2275D02*
X886Y2275D01*
X938Y2275D02*
X986Y2275D01*
X1038Y2275D02*
X1086Y2275D01*
X537Y2274D02*
X587Y2274D01*
X637Y2274D02*
X687Y2274D01*
X737Y2274D02*
X787Y2274D01*
X837Y2274D02*
X887Y2274D01*
X937Y2274D02*
X987Y2274D01*
X1037Y2274D02*
X1087Y2274D01*
X536Y2273D02*
X589Y2273D01*
X636Y2273D02*
X688Y2273D01*
X736Y2273D02*
X788Y2273D01*
X836Y2273D02*
X888Y2273D01*
X936Y2273D02*
X988Y2273D01*
X1036Y2273D02*
X1088Y2273D01*
X535Y2272D02*
X590Y2272D01*
X635Y2272D02*
X690Y2272D01*
X735Y2272D02*
X789Y2272D01*
X835Y2272D02*
X889Y2272D01*
X935Y2272D02*
X989Y2272D01*
X1035Y2272D02*
X1089Y2272D01*
X534Y2271D02*
X590Y2271D01*
X634Y2271D02*
X690Y2271D01*
X734Y2271D02*
X790Y2271D01*
X834Y2271D02*
X890Y2271D01*
X934Y2271D02*
X990Y2271D01*
X1034Y2271D02*
X1090Y2271D01*
X533Y2270D02*
X591Y2270D01*
X633Y2270D02*
X691Y2270D01*
X733Y2270D02*
X791Y2270D01*
X833Y2270D02*
X891Y2270D01*
X933Y2270D02*
X991Y2270D01*
X1033Y2270D02*
X1091Y2270D01*
X532Y2269D02*
X592Y2269D01*
X632Y2269D02*
X692Y2269D01*
X732Y2269D02*
X792Y2269D01*
X832Y2269D02*
X892Y2269D01*
X932Y2269D02*
X992Y2269D01*
X1032Y2269D02*
X1092Y2269D01*
X531Y2268D02*
X593Y2268D01*
X631Y2268D02*
X693Y2268D01*
X731Y2268D02*
X793Y2268D01*
X831Y2268D02*
X893Y2268D01*
X931Y2268D02*
X993Y2268D01*
X1031Y2268D02*
X1093Y2268D01*
X530Y2267D02*
X594Y2267D01*
X630Y2267D02*
X694Y2267D01*
X730Y2267D02*
X794Y2267D01*
X830Y2267D02*
X894Y2267D01*
X930Y2267D02*
X994Y2267D01*
X1030Y2267D02*
X1094Y2267D01*
X530Y2266D02*
X594Y2266D01*
X630Y2266D02*
X694Y2266D01*
X730Y2266D02*
X794Y2266D01*
X830Y2266D02*
X894Y2266D01*
X930Y2266D02*
X994Y2266D01*
X1030Y2266D02*
X1094Y2266D01*
X529Y2265D02*
X595Y2265D01*
X629Y2265D02*
X695Y2265D01*
X729Y2265D02*
X795Y2265D01*
X829Y2265D02*
X895Y2265D01*
X929Y2265D02*
X995Y2265D01*
X1029Y2265D02*
X1095Y2265D01*
X528Y2264D02*
X596Y2264D01*
X628Y2264D02*
X696Y2264D01*
X728Y2264D02*
X796Y2264D01*
X828Y2264D02*
X896Y2264D01*
X928Y2264D02*
X996Y2264D01*
X1028Y2264D02*
X1096Y2264D01*
X528Y2263D02*
X596Y2263D01*
X628Y2263D02*
X696Y2263D01*
X728Y2263D02*
X796Y2263D01*
X828Y2263D02*
X896Y2263D01*
X928Y2263D02*
X996Y2263D01*
X1028Y2263D02*
X1096Y2263D01*
X527Y2262D02*
X597Y2262D01*
X627Y2262D02*
X697Y2262D01*
X727Y2262D02*
X797Y2262D01*
X827Y2262D02*
X897Y2262D01*
X927Y2262D02*
X997Y2262D01*
X1027Y2262D02*
X1097Y2262D01*
X527Y2261D02*
X597Y2261D01*
X627Y2261D02*
X697Y2261D01*
X727Y2261D02*
X797Y2261D01*
X827Y2261D02*
X897Y2261D01*
X927Y2261D02*
X997Y2261D01*
X1027Y2261D02*
X1097Y2261D01*
X526Y2260D02*
X598Y2260D01*
X626Y2260D02*
X698Y2260D01*
X726Y2260D02*
X798Y2260D01*
X826Y2260D02*
X898Y2260D01*
X926Y2260D02*
X998Y2260D01*
X1026Y2260D02*
X1098Y2260D01*
X526Y2259D02*
X598Y2259D01*
X626Y2259D02*
X698Y2259D01*
X726Y2259D02*
X798Y2259D01*
X826Y2259D02*
X898Y2259D01*
X926Y2259D02*
X998Y2259D01*
X1026Y2259D02*
X1098Y2259D01*
X525Y2258D02*
X599Y2258D01*
X625Y2258D02*
X699Y2258D01*
X725Y2258D02*
X799Y2258D01*
X825Y2258D02*
X899Y2258D01*
X925Y2258D02*
X999Y2258D01*
X1025Y2258D02*
X1099Y2258D01*
X525Y2257D02*
X599Y2257D01*
X625Y2257D02*
X699Y2257D01*
X725Y2257D02*
X799Y2257D01*
X825Y2257D02*
X899Y2257D01*
X925Y2257D02*
X999Y2257D01*
X1025Y2257D02*
X1099Y2257D01*
X525Y2256D02*
X600Y2256D01*
X625Y2256D02*
X700Y2256D01*
X724Y2256D02*
X800Y2256D01*
X824Y2256D02*
X900Y2256D01*
X924Y2256D02*
X1000Y2256D01*
X1024Y2256D02*
X1100Y2256D01*
X524Y2255D02*
X600Y2255D01*
X624Y2255D02*
X700Y2255D01*
X724Y2255D02*
X800Y2255D01*
X824Y2255D02*
X900Y2255D01*
X924Y2255D02*
X1000Y2255D01*
X1024Y2255D02*
X1100Y2255D01*
X524Y2254D02*
X600Y2254D01*
X624Y2254D02*
X700Y2254D01*
X724Y2254D02*
X800Y2254D01*
X824Y2254D02*
X900Y2254D01*
X924Y2254D02*
X1000Y2254D01*
X1024Y2254D02*
X1100Y2254D01*
X524Y2253D02*
X601Y2253D01*
X624Y2253D02*
X700Y2253D01*
X724Y2253D02*
X800Y2253D01*
X824Y2253D02*
X900Y2253D01*
X924Y2253D02*
X1000Y2253D01*
X1024Y2253D02*
X1100Y2253D01*
X523Y2252D02*
X601Y2252D01*
X623Y2252D02*
X701Y2252D01*
X723Y2252D02*
X801Y2252D01*
X823Y2252D02*
X901Y2252D01*
X923Y2252D02*
X1001Y2252D01*
X1023Y2252D02*
X1101Y2252D01*
X523Y2251D02*
X601Y2251D01*
X623Y2251D02*
X701Y2251D01*
X723Y2251D02*
X801Y2251D01*
X823Y2251D02*
X901Y2251D01*
X923Y2251D02*
X1001Y2251D01*
X1023Y2251D02*
X1101Y2251D01*
X523Y2250D02*
X601Y2250D01*
X623Y2250D02*
X701Y2250D01*
X723Y2250D02*
X801Y2250D01*
X823Y2250D02*
X901Y2250D01*
X923Y2250D02*
X1001Y2250D01*
X1023Y2250D02*
X1101Y2250D01*
X523Y2249D02*
X601Y2249D01*
X623Y2249D02*
X701Y2249D01*
X723Y2249D02*
X801Y2249D01*
X823Y2249D02*
X901Y2249D01*
X923Y2249D02*
X1001Y2249D01*
X1023Y2249D02*
X1101Y2249D01*
X523Y2248D02*
X601Y2248D01*
X623Y2248D02*
X701Y2248D01*
X723Y2248D02*
X801Y2248D01*
X823Y2248D02*
X901Y2248D01*
X923Y2248D02*
X1001Y2248D01*
X1023Y2248D02*
X1101Y2248D01*
X523Y2247D02*
X601Y2247D01*
X623Y2247D02*
X701Y2247D01*
X723Y2247D02*
X801Y2247D01*
X823Y2247D02*
X901Y2247D01*
X923Y2247D02*
X1001Y2247D01*
X1023Y2247D02*
X1101Y2247D01*
X523Y2246D02*
X602Y2246D01*
X623Y2246D02*
X702Y2246D01*
X723Y2246D02*
X802Y2246D01*
X823Y2246D02*
X901Y2246D01*
X923Y2246D02*
X1001Y2246D01*
X1023Y2246D02*
X1102Y2246D01*
X523Y2245D02*
X602Y2245D01*
X623Y2245D02*
X702Y2245D01*
X723Y2245D02*
X802Y2245D01*
X823Y2245D02*
X902Y2245D01*
X923Y2245D02*
X1002Y2245D01*
X1023Y2245D02*
X1102Y2245D01*
X523Y2244D02*
X602Y2244D01*
X623Y2244D02*
X702Y2244D01*
X723Y2244D02*
X802Y2244D01*
X823Y2244D02*
X902Y2244D01*
X923Y2244D02*
X1002Y2244D01*
X1023Y2244D02*
X1102Y2244D01*
X523Y2243D02*
X601Y2243D01*
X623Y2243D02*
X701Y2243D01*
X723Y2243D02*
X801Y2243D01*
X823Y2243D02*
X901Y2243D01*
X923Y2243D02*
X1001Y2243D01*
X1023Y2243D02*
X1101Y2243D01*
X523Y2242D02*
X601Y2242D01*
X623Y2242D02*
X701Y2242D01*
X723Y2242D02*
X801Y2242D01*
X823Y2242D02*
X901Y2242D01*
X923Y2242D02*
X1001Y2242D01*
X1023Y2242D02*
X1101Y2242D01*
X523Y2241D02*
X601Y2241D01*
X623Y2241D02*
X701Y2241D01*
X723Y2241D02*
X801Y2241D01*
X823Y2241D02*
X901Y2241D01*
X923Y2241D02*
X1001Y2241D01*
X1023Y2241D02*
X1101Y2241D01*
X523Y2240D02*
X601Y2240D01*
X623Y2240D02*
X701Y2240D01*
X723Y2240D02*
X801Y2240D01*
X823Y2240D02*
X901Y2240D01*
X923Y2240D02*
X1001Y2240D01*
X1023Y2240D02*
X1101Y2240D01*
X523Y2239D02*
X601Y2239D01*
X623Y2239D02*
X701Y2239D01*
X723Y2239D02*
X801Y2239D01*
X823Y2239D02*
X901Y2239D01*
X923Y2239D02*
X1001Y2239D01*
X1023Y2239D02*
X1101Y2239D01*
X523Y2238D02*
X601Y2238D01*
X623Y2238D02*
X701Y2238D01*
X723Y2238D02*
X801Y2238D01*
X823Y2238D02*
X901Y2238D01*
X923Y2238D02*
X1001Y2238D01*
X1023Y2238D02*
X1101Y2238D01*
X524Y2237D02*
X601Y2237D01*
X624Y2237D02*
X701Y2237D01*
X724Y2237D02*
X801Y2237D01*
X824Y2237D02*
X901Y2237D01*
X924Y2237D02*
X1001Y2237D01*
X1024Y2237D02*
X1101Y2237D01*
X524Y2236D02*
X600Y2236D01*
X624Y2236D02*
X700Y2236D01*
X724Y2236D02*
X800Y2236D01*
X824Y2236D02*
X900Y2236D01*
X924Y2236D02*
X1000Y2236D01*
X1024Y2236D02*
X1100Y2236D01*
X524Y2235D02*
X600Y2235D01*
X624Y2235D02*
X700Y2235D01*
X724Y2235D02*
X800Y2235D01*
X824Y2235D02*
X900Y2235D01*
X924Y2235D02*
X1000Y2235D01*
X1024Y2235D02*
X1100Y2235D01*
X524Y2234D02*
X600Y2234D01*
X624Y2234D02*
X700Y2234D01*
X724Y2234D02*
X800Y2234D01*
X824Y2234D02*
X900Y2234D01*
X924Y2234D02*
X1000Y2234D01*
X1024Y2234D02*
X1100Y2234D01*
X525Y2233D02*
X599Y2233D01*
X625Y2233D02*
X699Y2233D01*
X725Y2233D02*
X799Y2233D01*
X825Y2233D02*
X899Y2233D01*
X925Y2233D02*
X999Y2233D01*
X1025Y2233D02*
X1099Y2233D01*
X525Y2232D02*
X599Y2232D01*
X625Y2232D02*
X699Y2232D01*
X725Y2232D02*
X799Y2232D01*
X825Y2232D02*
X899Y2232D01*
X925Y2232D02*
X999Y2232D01*
X1025Y2232D02*
X1099Y2232D01*
X526Y2231D02*
X598Y2231D01*
X626Y2231D02*
X698Y2231D01*
X726Y2231D02*
X798Y2231D01*
X826Y2231D02*
X898Y2231D01*
X926Y2231D02*
X998Y2231D01*
X1026Y2231D02*
X1098Y2231D01*
X526Y2230D02*
X598Y2230D01*
X626Y2230D02*
X698Y2230D01*
X726Y2230D02*
X798Y2230D01*
X826Y2230D02*
X898Y2230D01*
X926Y2230D02*
X998Y2230D01*
X1026Y2230D02*
X1098Y2230D01*
X527Y2229D02*
X597Y2229D01*
X627Y2229D02*
X697Y2229D01*
X727Y2229D02*
X797Y2229D01*
X827Y2229D02*
X897Y2229D01*
X927Y2229D02*
X997Y2229D01*
X1027Y2229D02*
X1097Y2229D01*
X527Y2228D02*
X597Y2228D01*
X627Y2228D02*
X697Y2228D01*
X727Y2228D02*
X797Y2228D01*
X827Y2228D02*
X897Y2228D01*
X927Y2228D02*
X997Y2228D01*
X1027Y2228D02*
X1097Y2228D01*
X528Y2227D02*
X596Y2227D01*
X628Y2227D02*
X696Y2227D01*
X728Y2227D02*
X796Y2227D01*
X828Y2227D02*
X896Y2227D01*
X928Y2227D02*
X996Y2227D01*
X1028Y2227D02*
X1096Y2227D01*
X528Y2226D02*
X596Y2226D01*
X628Y2226D02*
X696Y2226D01*
X728Y2226D02*
X796Y2226D01*
X828Y2226D02*
X896Y2226D01*
X928Y2226D02*
X996Y2226D01*
X1028Y2226D02*
X1096Y2226D01*
X529Y2225D02*
X595Y2225D01*
X629Y2225D02*
X695Y2225D01*
X729Y2225D02*
X795Y2225D01*
X829Y2225D02*
X895Y2225D01*
X929Y2225D02*
X995Y2225D01*
X1029Y2225D02*
X1095Y2225D01*
X530Y2224D02*
X595Y2224D01*
X630Y2224D02*
X695Y2224D01*
X730Y2224D02*
X795Y2224D01*
X830Y2224D02*
X894Y2224D01*
X930Y2224D02*
X994Y2224D01*
X1030Y2224D02*
X1094Y2224D01*
X530Y2223D02*
X594Y2223D01*
X630Y2223D02*
X694Y2223D01*
X730Y2223D02*
X794Y2223D01*
X830Y2223D02*
X894Y2223D01*
X930Y2223D02*
X994Y2223D01*
X1030Y2223D02*
X1094Y2223D01*
X531Y2222D02*
X593Y2222D01*
X631Y2222D02*
X693Y2222D01*
X731Y2222D02*
X793Y2222D01*
X831Y2222D02*
X893Y2222D01*
X931Y2222D02*
X993Y2222D01*
X1031Y2222D02*
X1093Y2222D01*
X532Y2221D02*
X592Y2221D01*
X632Y2221D02*
X692Y2221D01*
X732Y2221D02*
X792Y2221D01*
X832Y2221D02*
X892Y2221D01*
X932Y2221D02*
X992Y2221D01*
X1032Y2221D02*
X1092Y2221D01*
X533Y2220D02*
X591Y2220D01*
X633Y2220D02*
X691Y2220D01*
X733Y2220D02*
X791Y2220D01*
X833Y2220D02*
X891Y2220D01*
X933Y2220D02*
X991Y2220D01*
X1033Y2220D02*
X1091Y2220D01*
X534Y2219D02*
X591Y2219D01*
X634Y2219D02*
X691Y2219D01*
X734Y2219D02*
X791Y2219D01*
X834Y2219D02*
X891Y2219D01*
X934Y2219D02*
X991Y2219D01*
X1034Y2219D02*
X1091Y2219D01*
X535Y2218D02*
X590Y2218D01*
X635Y2218D02*
X690Y2218D01*
X735Y2218D02*
X790Y2218D01*
X835Y2218D02*
X890Y2218D01*
X934Y2218D02*
X990Y2218D01*
X1034Y2218D02*
X1090Y2218D01*
X536Y2217D02*
X589Y2217D01*
X636Y2217D02*
X689Y2217D01*
X736Y2217D02*
X789Y2217D01*
X835Y2217D02*
X889Y2217D01*
X935Y2217D02*
X989Y2217D01*
X1035Y2217D02*
X1089Y2217D01*
X537Y2216D02*
X588Y2216D01*
X637Y2216D02*
X688Y2216D01*
X737Y2216D02*
X788Y2216D01*
X837Y2216D02*
X888Y2216D01*
X937Y2216D02*
X988Y2216D01*
X1037Y2216D02*
X1088Y2216D01*
X538Y2215D02*
X586Y2215D01*
X638Y2215D02*
X686Y2215D01*
X738Y2215D02*
X786Y2215D01*
X838Y2215D02*
X886Y2215D01*
X938Y2215D02*
X986Y2215D01*
X1038Y2215D02*
X1086Y2215D01*
X539Y2214D02*
X585Y2214D01*
X639Y2214D02*
X685Y2214D01*
X739Y2214D02*
X785Y2214D01*
X839Y2214D02*
X885Y2214D01*
X939Y2214D02*
X985Y2214D01*
X1039Y2214D02*
X1085Y2214D01*
X540Y2213D02*
X584Y2213D01*
X640Y2213D02*
X684Y2213D01*
X740Y2213D02*
X784Y2213D01*
X840Y2213D02*
X884Y2213D01*
X940Y2213D02*
X984Y2213D01*
X1040Y2213D02*
X1084Y2213D01*
X542Y2212D02*
X583Y2212D01*
X642Y2212D02*
X683Y2212D01*
X742Y2212D02*
X783Y2212D01*
X842Y2212D02*
X882Y2212D01*
X942Y2212D02*
X982Y2212D01*
X1042Y2212D02*
X1082Y2212D01*
X543Y2211D02*
X581Y2211D01*
X643Y2211D02*
X681Y2211D01*
X743Y2211D02*
X781Y2211D01*
X843Y2211D02*
X881Y2211D01*
X943Y2211D02*
X981Y2211D01*
X1043Y2211D02*
X1081Y2211D01*
X545Y2210D02*
X579Y2210D01*
X645Y2210D02*
X679Y2210D01*
X745Y2210D02*
X779Y2210D01*
X845Y2210D02*
X879Y2210D01*
X945Y2210D02*
X979Y2210D01*
X1045Y2210D02*
X1079Y2210D01*
X547Y2209D02*
X577Y2209D01*
X647Y2209D02*
X677Y2209D01*
X747Y2209D02*
X777Y2209D01*
X847Y2209D02*
X877Y2209D01*
X947Y2209D02*
X977Y2209D01*
X1047Y2209D02*
X1077Y2209D01*
X549Y2208D02*
X575Y2208D01*
X649Y2208D02*
X675Y2208D01*
X749Y2208D02*
X775Y2208D01*
X849Y2208D02*
X875Y2208D01*
X949Y2208D02*
X975Y2208D01*
X1049Y2208D02*
X1075Y2208D01*
X551Y2207D02*
X573Y2207D01*
X651Y2207D02*
X673Y2207D01*
X751Y2207D02*
X773Y2207D01*
X851Y2207D02*
X873Y2207D01*
X951Y2207D02*
X973Y2207D01*
X1051Y2207D02*
X1073Y2207D01*
X555Y2206D02*
X570Y2206D01*
X655Y2206D02*
X670Y2206D01*
X755Y2206D02*
X770Y2206D01*
X855Y2206D02*
X870Y2206D01*
X955Y2206D02*
X970Y2206D01*
X1054Y2206D02*
X1070Y2206D01*
X561Y2205D02*
X563Y2205D01*
X661Y2205D02*
X663Y2205D01*
X761Y2205D02*
X763Y2205D01*
X861Y2205D02*
X863Y2205D01*
X961Y2205D02*
X963Y2205D01*
X1061Y2205D02*
X1063Y2205D01*
D02*
G04 End of Mask1*
M02*